<?xml version="1.0" encoding="UTF-8"?>
<svg version="1.1" xmlns="http://www.w3.org/2000/svg" width="28" height="28">
<path d="M0 0 C0.99 0 1.98 0 3 0 C2.125 4.75 2.125 4.75 1 7 C1.54269531 6.69964844 2.08539062 6.39929688 2.64453125 6.08984375 C3.35996094 5.70957031 4.07539063 5.32929687 4.8125 4.9375 C5.52019531 4.55464844 6.22789063 4.17179688 6.95703125 3.77734375 C9 3 9 3 12 4 C12 4.66 12 5.32 12 6 C10.02 6.99 8.04 7.98 6 9 C6.2475 9.53625 6.495 10.0725 6.75 10.625 C7.05276622 13.50127913 6.32430171 14.95007975 4.65625 17.2734375 C0.96434405 21.1220753 -3.60526361 24.01461011 -8 27 C-8.66 26.67 -9.32 26.34 -10 26 C-9.67 23.69 -9.34 21.38 -9 19 C-9.66 19.66 -10.32 20.32 -11 21 C-11.99 21 -12.98 21 -14 21 C-13.649375 20.4225 -13.29875 19.845 -12.9375 19.25 C-11.85082593 16.64198224 -12.06934867 15.60582371 -13 13 C-11.02 12.67 -9.04 12.34 -7 12 C-7.99 10.35 -8.98 8.7 -10 7 C-8.1875 6.375 -8.1875 6.375 -6 6 C-5.01 6.66 -4.02 7.32 -3 8 C-2.690625 7.05125 -2.38125 6.1025 -2.0625 5.125 C-1 2 -1 2 0 0 Z M-3 14 C-3.66 15.98 -4.32 17.96 -5 20 C-1.63279613 18.60667426 -0.0140476 17.0210714 2 14 C0.35 14 -1.3 14 -3 14 Z " fill="#0055AE" transform="translate(15,1)"/>
</svg>
